# MagicaVoxel @ Ephtracy

# group
o PigBody

# material
mtllib PigRider-3-PigBody.mtl
usemtl palette

# normals
vn -1 0 0
vn 1 0 0
vn 0 0 1
vn 0 0 -1
vn 0 -1 0
vn 0 1 0

# texcoords
vt 0.0566406 0.5
vt 0.0605469 0.5
vt 0.0800781 0.5
vt 0.201172 0.5
vt 0.208984 0.5
vt 0.279297 0.5
vt 0.365234 0.5
vt 0.958984 0.5
vt 0.994141 0.5

# verts
v -0.6 1 0.6
v -0.6 1 0.5
v -0.6 1.1 0.6
v -0.6 1.1 0.5
v -0.5 0.5 0.5
v -0.5 0.5 0.2
v -0.5 0.5 0.1
v -0.5 0.5 -0.4
v -0.5 0.5 -0.6
v -0.5 0.6 0.6
v -0.5 0.6 0.5
v -0.5 0.6 0.4
v -0.5 0.6 0.2
v -0.5 0.7 0.3
v -0.5 0.7 0.2
v -0.5 0.7 -0.3
v -0.5 0.7 -0.4
v -0.5 0.7 -0.6
v -0.5 0.8 0.4
v -0.5 0.8 0.3
v -0.5 0.8 0.2
v -0.5 0.8 0.1
v -0.5 0.8 0
v -0.5 0.8 -0.3
v -0.5 0.8 -0.4
v -0.5 0.8 -0.5
v -0.5 0.8 -0.6
v -0.5 0.9 0.6
v -0.5 0.9 0.5
v -0.5 0.9 0.3
v -0.5 0.9 0.2
v -0.5 1 0.6
v -0.5 1 0.5
v -0.5 1 0.4
v -0.5 1 0.2
v -0.5 1 0.1
v -0.5 1 0
v -0.5 1 -0.5
v -0.5 1 -0.6
v -0.5 1.3 0.4
v -0.5 1.3 0.2
v -0.4 0.4 0.5
v -0.4 0.4 0.2
v -0.4 0.4 0.1
v -0.4 0.4 -0.3
v -0.4 0.4 -0.4
v -0.4 0.4 -0.6
v -0.4 0.5 0.5
v -0.4 0.5 0.2
v -0.4 0.5 0.1
v -0.4 0.5 -0.3
v -0.4 0.5 -0.4
v -0.4 0.5 -0.6
v -0.4 0.6 0.2
v -0.4 0.7 0.2
v -0.4 0.8 0.2
v -0.4 0.8 0.1
v -0.4 0.9 0.2
v -0.4 1 0.5
v -0.4 1 0.4
v -0.4 1 0.2
v -0.4 1 0.1
v -0.4 1 0
v -0.4 1 -0.5
v -0.4 1 -0.6
v -0.4 1.1 0.5
v -0.4 1.1 0.4
v -0.4 1.1 0.1
v -0.4 1.1 0
v -0.4 1.1 -0.5
v -0.4 1.1 -0.6
v -0.3 0.6 0.7
v -0.3 0.6 0.6
v -0.3 0.7 0.6
v -0.3 0.9 0.7
v -0.3 0.9 0.6
v -0.3 1.1 0.4
v -0.3 1.1 0.3
v -0.3 1.2 0.4
v -0.3 1.2 0.3
v -0.2 0.6 -0.8
v -0.2 0.6 -0.9
v -0.2 0.9 -0.8
v -0.2 0.9 -0.9
v -0.1 0.6 -0.6
v -0.1 0.6 -0.8
v -0.1 0.7 0.7
v -0.1 0.7 0.6
v -0.1 0.7 -0.6
v -0.1 0.7 -0.8
v -0.1 0.8 0.7
v -0.1 0.8 0.6
v -0.1 0.8 -0.9
v -0.1 0.8 -1
v -0.1 0.9 -0.9
v -0.1 0.9 -1
v 0 0.7 -0.6
v 0 0.7 -0.8
v 0 0.8 -0.6
v 0 0.8 -0.8
v 0.1 0.7 0.7
v 0.1 0.7 0.6
v 0.1 0.8 0.7
v 0.1 0.8 0.6
v 0.1 0.9 0.6
v 0.1 0.9 0.5
v 0.1 1 0.6
v 0.1 1 0.5
v 0.1 1.1 0.4
v 0.1 1.1 0.2
v 0.1 1.2 0.4
v 0.1 1.2 0.2
v 0.2 1 0.6
v 0.2 1 0.5
v 0.2 1.1 0.6
v 0.2 1.1 0.5
v 0.2 1.2 0.4
v 0.2 1.2 0.2
v 0.2 1.3 0.4
v 0.2 1.3 0.2
v 0.3 1.1 0.4
v 0.3 1.1 0.3
v 0.3 1.2 0.4
v 0.3 1.2 0.3
v -0.4 1.1 0.4
v -0.4 1.1 0.3
v -0.4 1.2 0.4
v -0.4 1.2 0.3
v -0.3 1 0.6
v -0.3 1 0.5
v -0.3 1.1 0.6
v -0.3 1.1 0.5
v -0.3 1.2 0.4
v -0.3 1.2 0.2
v -0.3 1.3 0.4
v -0.3 1.3 0.2
v -0.2 0.7 0.7
v -0.2 0.7 0.6
v -0.2 0.8 0.7
v -0.2 0.8 0.6
v -0.2 0.9 0.6
v -0.2 0.9 0.5
v -0.2 1 0.6
v -0.2 1 0.5
v -0.2 1.1 0.4
v -0.2 1.1 0.2
v -0.2 1.2 0.4
v -0.2 1.2 0.2
v -0.1 0.7 -0.8
v -0.1 0.7 -0.9
v -0.1 0.8 -0.8
v -0.1 0.8 -0.9
v 0 0.6 -0.6
v 0 0.6 -0.9
v 0 0.7 0.7
v 0 0.7 0.6
v 0 0.7 -0.6
v 0 0.7 -0.8
v 0 0.7 -0.9
v 0 0.8 0.7
v 0 0.8 0.6
v 0 0.8 -0.8
v 0 0.8 -1
v 0 0.9 -0.8
v 0 0.9 -1
v 0.1 0.7 -0.6
v 0.1 0.7 -0.8
v 0.1 0.8 -0.6
v 0.1 0.8 -0.8
v 0.2 0.6 0.7
v 0.2 0.6 0.6
v 0.2 0.7 0.6
v 0.2 0.9 0.7
v 0.2 0.9 0.6
v 0.2 1.1 0.4
v 0.2 1.1 0.3
v 0.2 1.2 0.4
v 0.2 1.2 0.3
v 0.3 0.4 0.5
v 0.3 0.4 0.2
v 0.3 0.4 0.1
v 0.3 0.4 -0.6
v 0.3 0.5 0.5
v 0.3 0.5 0.2
v 0.3 0.5 0.1
v 0.3 0.5 -0.1
v 0.3 0.5 -0.2
v 0.3 0.5 -0.6
v 0.3 0.6 0.1
v 0.3 0.8 0.1
v 0.3 1 0.5
v 0.3 1 0.4
v 0.3 1 0.2
v 0.3 1 0.1
v 0.3 1 0
v 0.3 1 -0.5
v 0.3 1 -0.6
v 0.3 1.1 0.5
v 0.3 1.1 0.4
v 0.3 1.1 0.1
v 0.3 1.1 0
v 0.3 1.1 -0.5
v 0.3 1.1 -0.6
v 0.4 0.5 0.5
v 0.4 0.5 0.2
v 0.4 0.5 0.1
v 0.4 0.5 -0.1
v 0.4 0.5 -0.2
v 0.4 0.5 -0.6
v 0.4 0.6 0.6
v 0.4 0.6 0.5
v 0.4 0.6 0.1
v 0.4 0.6 -0.1
v 0.4 0.6 -0.2
v 0.4 0.7 0
v 0.4 0.7 -0.1
v 0.4 0.7 -0.5
v 0.4 0.8 0.1
v 0.4 0.8 0
v 0.4 0.8 -0.5
v 0.4 0.8 -0.6
v 0.4 0.9 0.6
v 0.4 0.9 0.5
v 0.4 1 0.6
v 0.4 1 0.5
v 0.4 1 0.4
v 0.4 1 0.2
v 0.4 1 0.1
v 0.4 1 0
v 0.4 1 -0.5
v 0.4 1 -0.6
v 0.4 1.3 0.4
v 0.4 1.3 0.2
v 0.5 1 0.6
v 0.5 1 0.5
v 0.5 1.1 0.6
v 0.5 1.1 0.5
v -0.3 0.6 0.7
v -0.3 0.9 0.7
v -0.2 0.7 0.7
v -0.2 0.8 0.7
v -0.1 0.7 0.7
v -0.1 0.8 0.7
v 0 0.7 0.7
v 0 0.8 0.7
v 0.1 0.7 0.7
v 0.1 0.8 0.7
v 0.2 0.6 0.7
v 0.2 0.9 0.7
v -0.6 1 0.6
v -0.6 1.1 0.6
v -0.5 0.6 0.6
v -0.5 0.9 0.6
v -0.5 1 0.6
v -0.4 0.7 0.6
v -0.4 0.9 0.6
v -0.3 0.6 0.6
v -0.3 0.7 0.6
v -0.3 0.9 0.6
v -0.3 1 0.6
v -0.3 1.1 0.6
v -0.2 0.7 0.6
v -0.2 0.8 0.6
v -0.2 0.9 0.6
v -0.2 1 0.6
v -0.1 0.7 0.6
v -0.1 0.8 0.6
v 0 0.7 0.6
v 0 0.8 0.6
v 0.1 0.7 0.6
v 0.1 0.8 0.6
v 0.1 0.9 0.6
v 0.1 1 0.6
v 0.2 0.6 0.6
v 0.2 0.7 0.6
v 0.2 0.9 0.6
v 0.2 1 0.6
v 0.2 1.1 0.6
v 0.3 0.7 0.6
v 0.3 0.9 0.6
v 0.4 0.6 0.6
v 0.4 0.9 0.6
v 0.4 1 0.6
v 0.5 1 0.6
v 0.5 1.1 0.6
v -0.5 0.5 0.5
v -0.5 0.6 0.5
v -0.4 0.4 0.5
v -0.4 0.5 0.5
v -0.3 1 0.5
v -0.3 1.1 0.5
v -0.2 0.6 0.5
v -0.2 0.9 0.5
v -0.2 1 0.5
v -0.1 0.4 0.5
v -0.1 0.5 0.5
v -0.1 0.6 0.5
v 0.1 0.4 0.5
v 0.1 0.5 0.5
v 0.1 0.6 0.5
v 0.1 0.9 0.5
v 0.1 1 0.5
v 0.2 1 0.5
v 0.2 1.1 0.5
v 0.3 0.4 0.5
v 0.3 0.5 0.5
v 0.4 0.5 0.5
v 0.4 0.6 0.5
v -0.5 1 0.4
v -0.5 1.3 0.4
v -0.4 1 0.4
v -0.4 1.1 0.4
v -0.4 1.2 0.4
v -0.3 1.1 0.4
v -0.3 1.2 0.4
v -0.3 1.3 0.4
v -0.2 1.1 0.4
v -0.2 1.2 0.4
v 0.1 1.1 0.4
v 0.1 1.2 0.4
v 0.2 1.1 0.4
v 0.2 1.2 0.4
v 0.2 1.3 0.4
v 0.3 1 0.4
v 0.3 1.1 0.4
v 0.3 1.2 0.4
v 0.4 1 0.4
v 0.4 1.3 0.4
v -0.4 1.1 0.3
v -0.4 1.2 0.3
v -0.3 1.1 0.3
v -0.3 1.2 0.3
v 0.2 1.1 0.3
v 0.2 1.2 0.3
v 0.3 1.1 0.3
v 0.3 1.2 0.3
v -0.5 0.5 0.1
v -0.5 0.8 0.1
v -0.5 1 0.1
v -0.4 0.4 0.1
v -0.4 0.5 0.1
v -0.4 0.8 0.1
v -0.4 1 0.1
v -0.4 1.1 0.1
v -0.3 1 0.1
v -0.3 1.1 0.1
v 0.2 1 0.1
v 0.2 1.1 0.1
v 0.3 0.4 0.1
v 0.3 0.5 0.1
v 0.3 0.6 0.1
v 0.3 0.8 0.1
v 0.3 1 0.1
v 0.3 1.1 0.1
v 0.4 0.5 0.1
v 0.4 0.6 0.1
v 0.4 0.8 0.1
v 0.4 1 0.1
v -0.2 0.6 -0.8
v -0.2 0.9 -0.8
v -0.1 0.6 -0.8
v -0.1 0.7 -0.8
v -0.1 0.8 -0.8
v 0 0.8 -0.8
v 0 0.9 -0.8
v -0.6 1 0.5
v -0.6 1.1 0.5
v -0.5 1 0.5
v -0.4 1 0.5
v -0.4 1.1 0.5
v 0.3 1 0.5
v 0.3 1.1 0.5
v 0.4 1 0.5
v 0.5 1 0.5
v 0.5 1.1 0.5
v -0.5 0.5 0.2
v -0.5 0.6 0.2
v -0.5 0.7 0.2
v -0.5 0.8 0.2
v -0.5 0.9 0.2
v -0.5 1 0.2
v -0.5 1.3 0.2
v -0.4 0.4 0.2
v -0.4 0.5 0.2
v -0.4 0.6 0.2
v -0.4 0.7 0.2
v -0.4 0.8 0.2
v -0.4 0.9 0.2
v -0.4 1 0.2
v -0.4 1.1 0.2
v -0.3 1.2 0.2
v -0.3 1.3 0.2
v -0.2 1.1 0.2
v -0.2 1.2 0.2
v 0.1 1.1 0.2
v 0.1 1.2 0.2
v 0.2 1.2 0.2
v 0.2 1.3 0.2
v 0.3 0.4 0.2
v 0.3 0.5 0.2
v 0.3 1 0.2
v 0.3 1.1 0.2
v 0.4 0.5 0.2
v 0.4 1 0.2
v 0.4 1.3 0.2
v -0.5 0.5 -0.6
v -0.5 0.7 -0.6
v -0.5 0.8 -0.6
v -0.5 1 -0.6
v -0.4 0.4 -0.6
v -0.4 0.5 -0.6
v -0.4 0.7 -0.6
v -0.4 0.8 -0.6
v -0.4 1 -0.6
v -0.4 1.1 -0.6
v -0.3 1 -0.6
v -0.3 1.1 -0.6
v -0.1 0.6 -0.6
v -0.1 0.7 -0.6
v 0 0.6 -0.6
v 0 0.7 -0.6
v 0 0.8 -0.6
v 0.1 0.7 -0.6
v 0.1 0.8 -0.6
v 0.2 1 -0.6
v 0.2 1.1 -0.6
v 0.3 0.4 -0.6
v 0.3 0.5 -0.6
v 0.3 0.8 -0.6
v 0.3 1 -0.6
v 0.3 1.1 -0.6
v 0.4 0.5 -0.6
v 0.4 0.8 -0.6
v 0.4 1 -0.6
v 0 0.7 -0.8
v 0 0.8 -0.8
v 0.1 0.7 -0.8
v 0.1 0.8 -0.8
v -0.2 0.6 -0.9
v -0.2 0.9 -0.9
v -0.1 0.7 -0.9
v -0.1 0.8 -0.9
v -0.1 0.9 -0.9
v 0 0.6 -0.9
v 0 0.7 -0.9
v -0.1 0.8 -1
v -0.1 0.9 -1
v 0 0.8 -1
v 0 0.9 -1
v -0.4 0.4 0.5
v -0.1 0.4 0.5
v 0.1 0.4 0.5
v 0.3 0.4 0.5
v -0.1 0.4 0.4
v 0.1 0.4 0.4
v -0.4 0.4 0.2
v 0.3 0.4 0.2
v -0.4 0.4 0.1
v 0.3 0.4 0.1
v -0.4 0.4 -0.3
v -0.3 0.4 -0.3
v -0.4 0.4 -0.4
v -0.3 0.4 -0.4
v -0.4 0.4 -0.6
v 0.3 0.4 -0.6
v -0.5 0.5 0.5
v -0.4 0.5 0.5
v 0.3 0.5 0.5
v 0.4 0.5 0.5
v -0.5 0.5 0.2
v -0.4 0.5 0.2
v 0.3 0.5 0.2
v 0.4 0.5 0.2
v -0.5 0.5 0.1
v -0.4 0.5 0.1
v 0.3 0.5 0.1
v 0.4 0.5 0.1
v 0.3 0.5 -0.1
v 0.4 0.5 -0.1
v 0.3 0.5 -0.2
v 0.4 0.5 -0.2
v -0.4 0.5 -0.3
v -0.5 0.5 -0.4
v -0.4 0.5 -0.4
v -0.5 0.5 -0.6
v -0.4 0.5 -0.6
v 0.3 0.5 -0.6
v 0.4 0.5 -0.6
v -0.3 0.6 0.7
v 0.2 0.6 0.7
v -0.5 0.6 0.6
v -0.3 0.6 0.6
v -0.2 0.6 0.6
v 0.1 0.6 0.6
v 0.2 0.6 0.6
v 0.4 0.6 0.6
v -0.5 0.6 0.5
v -0.2 0.6 0.5
v -0.1 0.6 0.5
v 0.1 0.6 0.5
v 0.4 0.6 0.5
v -0.1 0.6 -0.6
v 0 0.6 -0.6
v -0.2 0.6 -0.8
v -0.1 0.6 -0.8
v -0.2 0.6 -0.9
v 0 0.6 -0.9
v 0 0.7 -0.6
v 0.1 0.7 -0.6
v 0 0.7 -0.8
v 0.1 0.7 -0.8
v -0.2 0.8 0.7
v -0.1 0.8 0.7
v 0 0.8 0.7
v 0.1 0.8 0.7
v -0.2 0.8 0.6
v -0.1 0.8 0.6
v 0 0.8 0.6
v 0.1 0.8 0.6
v -0.1 0.8 -0.8
v 0 0.8 -0.8
v -0.1 0.8 -0.9
v -0.1 0.8 -1
v 0 0.8 -1
v -0.6 1 0.6
v -0.5 1 0.6
v 0.4 1 0.6
v 0.5 1 0.6
v -0.6 1 0.5
v -0.5 1 0.5
v 0.4 1 0.5
v 0.5 1 0.5
v -0.4 1.2 0.4
v -0.3 1.2 0.4
v 0.2 1.2 0.4
v 0.3 1.2 0.4
v -0.4 1.2 0.3
v -0.3 1.2 0.3
v 0.2 1.2 0.3
v 0.3 1.2 0.3
v -0.2 0.7 0.7
v -0.1 0.7 0.7
v 0 0.7 0.7
v 0.1 0.7 0.7
v -0.2 0.7 0.6
v -0.1 0.7 0.6
v 0 0.7 0.6
v 0.1 0.7 0.6
v -0.1 0.7 -0.6
v 0 0.7 -0.6
v -0.1 0.7 -0.8
v 0 0.7 -0.8
v -0.1 0.7 -0.9
v 0 0.7 -0.9
v 0 0.8 -0.6
v 0.1 0.8 -0.6
v 0 0.8 -0.8
v 0.1 0.8 -0.8
v -0.3 0.9 0.7
v 0.2 0.9 0.7
v -0.3 0.9 0.6
v -0.2 0.9 0.6
v 0.1 0.9 0.6
v 0.2 0.9 0.6
v -0.2 0.9 0.5
v 0.1 0.9 0.5
v -0.2 0.9 -0.8
v 0 0.9 -0.8
v -0.2 0.9 -0.9
v -0.1 0.9 -0.9
v -0.1 0.9 -1
v 0 0.9 -1
v -0.3 1 0.6
v -0.2 1 0.6
v 0.1 1 0.6
v 0.2 1 0.6
v -0.5 1 0.5
v -0.4 1 0.5
v -0.3 1 0.5
v -0.2 1 0.5
v 0.1 1 0.5
v 0.2 1 0.5
v 0.3 1 0.5
v 0.4 1 0.5
v -0.5 1 0.4
v -0.4 1 0.4
v 0.3 1 0.4
v 0.4 1 0.4
v -0.4 1 0.2
v 0.3 1 0.2
v -0.5 1 0.1
v -0.4 1 0.1
v -0.3 1 0.1
v 0.2 1 0.1
v 0.3 1 0.1
v 0.4 1 0.1
v -0.5 1 0
v -0.4 1 0
v 0.3 1 0
v 0.4 1 0
v -0.5 1 -0.5
v -0.4 1 -0.5
v 0.3 1 -0.5
v 0.4 1 -0.5
v -0.5 1 -0.6
v -0.4 1 -0.6
v 0.3 1 -0.6
v 0.4 1 -0.6
v -0.6 1.1 0.6
v -0.3 1.1 0.6
v 0.2 1.1 0.6
v 0.5 1.1 0.6
v -0.6 1.1 0.5
v -0.4 1.1 0.5
v -0.3 1.1 0.5
v 0.2 1.1 0.5
v 0.3 1.1 0.5
v 0.5 1.1 0.5
v -0.4 1.1 0.4
v -0.3 1.1 0.4
v -0.2 1.1 0.4
v 0.1 1.1 0.4
v 0.2 1.1 0.4
v 0.3 1.1 0.4
v -0.4 1.1 0.3
v -0.3 1.1 0.3
v 0.2 1.1 0.3
v 0.3 1.1 0.3
v -0.2 1.1 0.2
v 0.1 1.1 0.2
v -0.4 1.1 0.1
v -0.3 1.1 0.1
v 0.2 1.1 0.1
v 0.3 1.1 0.1
v -0.4 1.1 0
v -0.3 1.1 0
v 0.2 1.1 0
v 0.3 1.1 0
v -0.4 1.1 -0.5
v -0.3 1.1 -0.5
v 0.2 1.1 -0.5
v 0.3 1.1 -0.5
v -0.4 1.1 -0.6
v -0.3 1.1 -0.6
v 0.2 1.1 -0.6
v 0.3 1.1 -0.6
v -0.3 1.2 0.4
v -0.2 1.2 0.4
v 0.1 1.2 0.4
v 0.2 1.2 0.4
v -0.3 1.2 0.2
v -0.2 1.2 0.2
v 0.1 1.2 0.2
v 0.2 1.2 0.2
v -0.5 1.3 0.4
v -0.3 1.3 0.4
v 0.2 1.3 0.4
v 0.4 1.3 0.4
v -0.5 1.3 0.2
v -0.3 1.3 0.2
v 0.2 1.3 0.2
v 0.4 1.3 0.2

# faces
f 3/9/1 2/9/1 1/9/1
f 4/9/1 2/9/1 3/9/1
f 11/2/1 6/2/1 5/2/1
f 12/2/1 6/2/1 11/2/1
f 13/2/1 6/2/1 12/2/1
f 14/1/1 13/1/1 12/1/1
f 15/1/1 13/1/1 14/1/1
f 16/2/1 8/2/1 7/2/1
f 17/1/1 9/1/1 8/1/1
f 17/2/1 8/2/1 16/2/1
f 18/1/1 9/1/1 17/1/1
f 19/2/1 12/2/1 11/2/1
f 19/1/1 14/1/1 12/1/1
f 20/2/1 15/2/1 14/2/1
f 20/1/1 14/1/1 19/1/1
f 21/2/1 15/2/1 20/2/1
f 22/2/1 16/2/1 7/2/1
f 23/2/1 16/2/1 22/2/1
f 24/1/1 17/1/1 16/1/1
f 24/2/1 16/2/1 23/2/1
f 25/2/1 18/2/1 17/2/1
f 25/1/1 17/1/1 24/1/1
f 26/2/1 18/2/1 25/2/1
f 27/2/1 18/2/1 26/2/1
f 28/8/1 11/8/1 10/8/1
f 29/2/1 19/2/1 11/2/1
f 29/8/1 11/8/1 28/8/1
f 29/2/1 20/2/1 19/2/1
f 30/1/1 21/1/1 20/1/1
f 30/2/1 20/2/1 29/2/1
f 31/1/1 21/1/1 30/1/1
f 32/9/1 29/9/1 28/9/1
f 33/2/1 30/2/1 29/2/1
f 33/9/1 29/9/1 32/9/1
f 33/2/1 31/2/1 30/2/1
f 34/2/1 31/2/1 33/2/1
f 35/2/1 31/2/1 34/2/1
f 36/5/1 23/5/1 22/5/1
f 37/6/1 24/6/1 23/6/1
f 37/5/1 23/5/1 36/5/1
f 37/6/1 25/6/1 24/6/1
f 37/6/1 26/6/1 25/6/1
f 38/5/1 27/5/1 26/5/1
f 38/6/1 26/6/1 37/6/1
f 39/5/1 27/5/1 38/5/1
f 40/1/1 35/1/1 34/1/1
f 41/1/1 35/1/1 40/1/1
f 48/2/1 43/2/1 42/2/1
f 49/2/1 43/2/1 48/2/1
f 50/2/1 45/2/1 44/2/1
f 51/1/1 46/1/1 45/1/1
f 51/2/1 45/2/1 50/2/1
f 52/2/1 47/2/1 46/2/1
f 52/1/1 46/1/1 51/1/1
f 53/2/1 47/2/1 52/2/1
f 54/2/1 50/2/1 49/2/1
f 55/2/1 50/2/1 54/2/1
f 56/2/1 50/2/1 55/2/1
f 57/2/1 50/2/1 56/2/1
f 58/2/1 57/2/1 56/2/1
f 61/2/1 57/2/1 58/2/1
f 62/2/1 57/2/1 61/2/1
f 66/2/1 60/2/1 59/2/1
f 67/2/1 60/2/1 66/2/1
f 68/5/1 63/5/1 62/5/1
f 69/6/1 64/6/1 63/6/1
f 69/5/1 63/5/1 68/5/1
f 70/5/1 65/5/1 64/5/1
f 70/6/1 64/6/1 69/6/1
f 71/5/1 65/5/1 70/5/1
f 74/1/1 73/1/1 72/1/1
f 75/1/1 74/1/1 72/1/1
f 76/1/1 74/1/1 75/1/1
f 79/1/1 78/1/1 77/1/1
f 80/1/1 78/1/1 79/1/1
f 83/1/1 82/1/1 81/1/1
f 84/1/1 82/1/1 83/1/1
f 89/1/1 86/1/1 85/1/1
f 90/1/1 86/1/1 89/1/1
f 91/1/1 88/1/1 87/1/1
f 92/1/1 88/1/1 91/1/1
f 95/1/1 94/1/1 93/1/1
f 96/1/1 94/1/1 95/1/1
f 99/1/1 98/1/1 97/1/1
f 100/1/1 98/1/1 99/1/1
f 103/1/1 102/1/1 101/1/1
f 104/1/1 102/1/1 103/1/1
f 107/9/1 106/9/1 105/9/1
f 108/9/1 106/9/1 107/9/1
f 111/1/1 110/1/1 109/1/1
f 112/1/1 110/1/1 111/1/1
f 115/9/1 114/9/1 113/9/1
f 116/9/1 114/9/1 115/9/1
f 119/1/1 118/1/1 117/1/1
f 120/1/1 118/1/1 119/1/1
f 123/1/1 122/1/1 121/1/1
f 124/1/1 122/1/1 123/1/1
f 125/1/2 126/1/2 127/1/2
f 127/1/2 126/1/2 128/1/2
f 129/9/2 130/9/2 131/9/2
f 131/9/2 130/9/2 132/9/2
f 133/1/2 134/1/2 135/1/2
f 135/1/2 134/1/2 136/1/2
f 137/1/2 138/1/2 139/1/2
f 139/1/2 138/1/2 140/1/2
f 141/9/2 142/9/2 143/9/2
f 143/9/2 142/9/2 144/9/2
f 145/1/2 146/1/2 147/1/2
f 147/1/2 146/1/2 148/1/2
f 149/1/2 150/1/2 151/1/2
f 151/1/2 150/1/2 152/1/2
f 153/1/2 154/1/2 157/1/2
f 157/1/2 154/1/2 158/1/2
f 158/1/2 154/1/2 159/1/2
f 155/1/2 156/1/2 160/1/2
f 160/1/2 156/1/2 161/1/2
f 162/1/2 163/1/2 164/1/2
f 164/1/2 163/1/2 165/1/2
f 166/1/2 167/1/2 168/1/2
f 168/1/2 167/1/2 169/1/2
f 170/1/2 171/1/2 172/1/2
f 170/1/2 172/1/2 173/1/2
f 173/1/2 172/1/2 174/1/2
f 175/1/2 176/1/2 177/1/2
f 177/1/2 176/1/2 178/1/2
f 179/2/2 180/2/2 183/2/2
f 183/2/2 180/2/2 184/2/2
f 181/2/2 182/2/2 185/2/2
f 185/2/2 182/2/2 186/2/2
f 186/2/2 182/2/2 187/2/2
f 187/2/2 182/2/2 188/2/2
f 184/2/2 185/2/2 189/2/2
f 184/2/2 189/2/2 190/2/2
f 184/2/2 190/2/2 193/2/2
f 193/2/2 190/2/2 194/2/2
f 191/2/2 192/2/2 198/2/2
f 198/2/2 192/2/2 199/2/2
f 194/5/2 195/5/2 200/5/2
f 195/6/2 196/6/2 201/6/2
f 200/5/2 195/5/2 201/5/2
f 196/5/2 197/5/2 202/5/2
f 201/6/2 196/6/2 202/6/2
f 202/5/2 197/5/2 203/5/2
f 204/2/2 205/2/2 211/2/2
f 206/2/2 207/2/2 212/2/2
f 207/1/2 208/1/2 213/1/2
f 212/2/2 207/2/2 213/2/2
f 208/2/2 209/2/2 214/2/2
f 213/1/2 208/1/2 214/1/2
f 212/1/2 213/1/2 215/1/2
f 213/2/2 214/2/2 216/2/2
f 215/1/2 213/1/2 216/1/2
f 214/2/2 209/2/2 217/2/2
f 216/2/2 214/2/2 217/2/2
f 212/1/2 215/1/2 218/1/2
f 215/5/2 216/5/2 219/5/2
f 218/1/2 215/1/2 219/1/2
f 216/5/2 217/5/2 219/5/2
f 217/2/2 209/2/2 220/2/2
f 219/5/2 217/5/2 220/5/2
f 220/2/2 209/2/2 221/2/2
f 210/8/2 211/8/2 222/8/2
f 211/2/2 205/2/2 223/2/2
f 222/8/2 211/8/2 223/8/2
f 222/9/2 223/9/2 224/9/2
f 223/2/2 205/2/2 225/2/2
f 224/9/2 223/9/2 225/9/2
f 225/2/2 205/2/2 226/2/2
f 226/2/2 205/2/2 227/2/2
f 218/5/2 219/5/2 228/5/2
f 219/6/2 220/6/2 229/6/2
f 228/5/2 219/5/2 229/5/2
f 220/5/2 221/5/2 230/5/2
f 229/6/2 220/6/2 230/6/2
f 230/5/2 221/5/2 231/5/2
f 226/1/2 227/1/2 232/1/2
f 232/1/2 227/1/2 233/1/2
f 234/9/2 235/9/2 236/9/2
f 236/9/2 235/9/2 237/9/2
f 240/1/3 239/1/3 238/1/3
f 241/1/3 239/1/3 240/1/3
f 242/1/3 240/1/3 238/1/3
f 243/1/3 239/1/3 241/1/3
f 244/1/3 242/1/3 238/1/3
f 244/1/3 243/1/3 242/1/3
f 245/1/3 239/1/3 243/1/3
f 245/1/3 243/1/3 244/1/3
f 246/1/3 244/1/3 238/1/3
f 247/1/3 239/1/3 245/1/3
f 248/1/3 246/1/3 238/1/3
f 248/1/3 247/1/3 246/1/3
f 249/1/3 239/1/3 247/1/3
f 249/1/3 247/1/3 248/1/3
f 254/9/3 251/9/3 250/9/3
f 255/8/3 253/8/3 252/8/3
f 256/9/3 254/9/3 253/9/3
f 256/8/3 253/8/3 255/8/3
f 257/8/3 255/8/3 252/8/3
f 258/9/3 256/9/3 255/9/3
f 258/8/3 255/8/3 257/8/3
f 259/9/3 254/9/3 256/9/3
f 259/9/3 256/9/3 258/9/3
f 260/9/3 251/9/3 254/9/3
f 260/9/3 254/9/3 259/9/3
f 261/9/3 251/9/3 260/9/3
f 264/9/3 260/9/3 259/9/3
f 265/9/3 260/9/3 264/9/3
f 266/3/3 263/3/3 262/3/3
f 267/3/3 263/3/3 266/3/3
f 270/3/3 269/3/3 268/3/3
f 271/3/3 269/3/3 270/3/3
f 276/9/3 273/9/3 272/9/3
f 277/9/3 273/9/3 276/9/3
f 279/9/3 277/9/3 276/9/3
f 279/9/3 278/9/3 277/9/3
f 279/9/3 276/9/3 275/9/3
f 279/8/3 275/8/3 274/8/3
f 280/9/3 278/9/3 279/9/3
f 281/8/3 279/8/3 274/8/3
f 281/8/3 280/8/3 279/8/3
f 282/9/3 278/9/3 280/9/3
f 282/8/3 280/8/3 281/8/3
f 283/9/3 278/9/3 282/9/3
f 284/9/3 278/9/3 283/9/3
f 285/9/3 278/9/3 284/9/3
f 289/2/3 287/2/3 286/2/3
f 292/2/3 287/2/3 289/2/3
f 292/2/3 289/2/3 288/2/3
f 294/2/3 291/2/3 290/2/3
f 295/2/3 292/2/3 288/2/3
f 296/2/3 292/2/3 295/2/3
f 297/2/3 292/2/3 296/2/3
f 298/7/3 296/7/3 295/7/3
f 299/8/3 297/8/3 296/8/3
f 299/7/3 296/7/3 298/7/3
f 300/8/3 297/8/3 299/8/3
f 301/2/3 294/2/3 293/2/3
f 302/2/3 291/2/3 294/2/3
f 302/2/3 294/2/3 301/2/3
f 303/2/3 291/2/3 302/2/3
f 304/2/3 291/2/3 303/2/3
f 305/2/3 300/2/3 299/2/3
f 305/2/3 299/2/3 298/2/3
f 306/2/3 300/2/3 305/2/3
f 307/2/3 300/2/3 306/2/3
f 308/2/3 300/2/3 307/2/3
f 311/1/3 310/1/3 309/1/3
f 312/1/3 310/1/3 311/1/3
f 313/1/3 310/1/3 312/1/3
f 315/1/3 310/1/3 313/1/3
f 316/1/3 310/1/3 315/1/3
f 317/1/3 315/1/3 314/1/3
f 318/1/3 315/1/3 317/1/3
f 321/1/3 320/1/3 319/1/3
f 322/1/3 320/1/3 321/1/3
f 326/1/3 323/1/3 322/1/3
f 327/1/3 325/1/3 324/1/3
f 327/1/3 326/1/3 325/1/3
f 328/1/3 323/1/3 326/1/3
f 328/1/3 326/1/3 327/1/3
f 331/1/3 330/1/3 329/1/3
f 332/1/3 330/1/3 331/1/3
f 335/1/3 334/1/3 333/1/3
f 336/1/3 334/1/3 335/1/3
f 341/2/3 338/2/3 337/2/3
f 342/5/3 339/5/3 338/5/3
f 342/2/3 338/2/3 341/2/3
f 343/5/3 339/5/3 342/5/3
f 345/5/3 344/5/3 343/5/3
f 346/5/3 344/5/3 345/5/3
f 347/4/3 346/4/3 345/4/3
f 348/4/3 346/4/3 347/4/3
f 349/2/3 341/2/3 340/2/3
f 350/2/3 341/2/3 349/2/3
f 353/5/3 348/5/3 347/5/3
f 354/5/3 348/5/3 353/5/3
f 355/2/3 351/2/3 350/2/3
f 356/1/3 352/1/3 351/1/3
f 356/2/3 351/2/3 355/2/3
f 357/5/3 353/5/3 352/5/3
f 357/1/3 352/1/3 356/1/3
f 358/5/3 353/5/3 357/5/3
f 361/1/3 360/1/3 359/1/3
f 362/1/3 360/1/3 361/1/3
f 363/1/3 360/1/3 362/1/3
f 364/1/3 360/1/3 363/1/3
f 365/1/3 360/1/3 364/1/3
f 366/9/4 367/9/4 368/9/4
f 368/9/4 367/9/4 369/9/4
f 369/9/4 367/9/4 370/9/4
f 371/9/4 372/9/4 373/9/4
f 373/9/4 372/9/4 374/9/4
f 374/9/4 372/9/4 375/9/4
f 376/2/4 377/2/4 384/2/4
f 377/1/4 378/1/4 385/1/4
f 384/2/4 377/2/4 385/2/4
f 378/2/4 379/2/4 386/2/4
f 385/1/4 378/1/4 386/1/4
f 379/1/4 380/1/4 387/1/4
f 386/2/4 379/2/4 387/2/4
f 380/2/4 381/2/4 388/2/4
f 387/1/4 380/1/4 388/1/4
f 381/1/4 382/1/4 389/1/4
f 388/2/4 381/2/4 389/2/4
f 389/1/4 382/1/4 390/1/4
f 390/1/4 382/1/4 391/1/4
f 391/1/4 382/1/4 392/1/4
f 389/2/4 390/2/4 393/2/4
f 390/1/4 391/1/4 393/1/4
f 393/1/4 391/1/4 394/1/4
f 389/2/4 393/2/4 395/2/4
f 395/1/4 396/1/4 397/1/4
f 383/2/4 384/2/4 399/2/4
f 399/2/4 384/2/4 400/2/4
f 389/2/4 395/2/4 401/2/4
f 397/1/4 398/1/4 402/1/4
f 395/1/4 397/1/4 402/1/4
f 401/2/4 395/2/4 402/2/4
f 400/2/4 401/2/4 403/2/4
f 401/1/4 402/1/4 404/1/4
f 403/2/4 401/2/4 404/2/4
f 402/1/4 398/1/4 405/1/4
f 404/1/4 402/1/4 405/1/4
f 406/1/4 407/1/4 411/1/4
f 407/2/4 408/2/4 412/2/4
f 411/1/4 407/1/4 412/1/4
f 408/5/4 409/5/4 413/5/4
f 412/2/4 408/2/4 413/2/4
f 413/5/4 409/5/4 414/5/4
f 411/2/4 412/2/4 416/2/4
f 414/5/4 415/5/4 416/5/4
f 413/2/4 414/2/4 416/2/4
f 412/2/4 413/2/4 416/2/4
f 410/2/4 411/2/4 416/2/4
f 416/5/4 415/5/4 417/5/4
f 410/2/4 416/2/4 418/2/4
f 418/2/4 416/2/4 419/2/4
f 410/2/4 418/2/4 420/2/4
f 419/2/4 416/2/4 421/2/4
f 421/2/4 416/2/4 422/2/4
f 420/2/4 421/2/4 423/2/4
f 422/2/4 416/2/4 424/2/4
f 416/4/4 417/4/4 425/4/4
f 423/2/4 424/2/4 425/2/4
f 424/2/4 416/2/4 425/2/4
f 425/4/4 417/4/4 426/4/4
f 410/2/4 420/2/4 427/2/4
f 420/2/4 423/2/4 427/2/4
f 423/2/4 425/2/4 427/2/4
f 427/2/4 425/2/4 428/2/4
f 428/2/4 425/2/4 429/2/4
f 425/5/4 426/5/4 430/5/4
f 429/2/4 425/2/4 430/2/4
f 430/5/4 426/5/4 431/5/4
f 428/2/4 429/2/4 432/2/4
f 429/5/4 430/5/4 433/5/4
f 432/2/4 429/2/4 433/2/4
f 433/5/4 430/5/4 434/5/4
f 435/1/4 436/1/4 437/1/4
f 437/1/4 436/1/4 438/1/4
f 439/1/4 440/1/4 441/1/4
f 441/1/4 440/1/4 442/1/4
f 442/1/4 440/1/4 443/1/4
f 439/1/4 441/1/4 444/1/4
f 444/1/4 441/1/4 445/1/4
f 446/1/4 447/1/4 448/1/4
f 448/1/4 447/1/4 449/1/4
f 454/2/5 451/2/5 450/2/5
f 454/7/5 452/7/5 451/7/5
f 455/2/5 453/2/5 452/2/5
f 455/7/5 452/7/5 454/7/5
f 456/2/5 454/2/5 450/2/5
f 456/2/5 455/2/5 454/2/5
f 457/2/5 453/2/5 455/2/5
f 457/2/5 455/2/5 456/2/5
f 460/2/5 459/2/5 458/2/5
f 461/2/5 459/2/5 460/2/5
f 462/1/5 461/1/5 460/1/5
f 463/2/5 459/2/5 461/2/5
f 463/1/5 461/1/5 462/1/5
f 464/2/5 463/2/5 462/2/5
f 465/2/5 459/2/5 463/2/5
f 465/2/5 463/2/5 464/2/5
f 470/2/5 467/2/5 466/2/5
f 471/2/5 467/2/5 470/2/5
f 472/2/5 469/2/5 468/2/5
f 473/2/5 469/2/5 472/2/5
f 475/2/5 472/2/5 471/2/5
f 476/2/5 472/2/5 475/2/5
f 478/2/5 477/2/5 476/2/5
f 479/2/5 477/2/5 478/2/5
f 480/1/5 479/1/5 478/1/5
f 481/1/5 479/1/5 480/1/5
f 482/2/5 475/2/5 474/2/5
f 483/2/5 482/2/5 474/2/5
f 484/2/5 482/2/5 483/2/5
f 485/1/5 484/1/5 483/1/5
f 486/1/5 484/1/5 485/1/5
f 487/2/5 481/2/5 480/2/5
f 488/2/5 481/2/5 487/2/5
f 492/1/5 490/1/5 489/1/5
f 493/1/5 490/1/5 492/1/5
f 494/1/5 490/1/5 493/1/5
f 495/1/5 490/1/5 494/1/5
f 497/8/5 492/8/5 491/8/5
f 497/8/5 493/8/5 492/8/5
f 498/3/5 494/3/5 493/3/5
f 498/8/5 493/8/5 497/8/5
f 499/3/5 494/3/5 498/3/5
f 500/8/5 496/8/5 495/8/5
f 500/3/5 494/3/5 499/3/5
f 500/8/5 495/8/5 494/8/5
f 501/8/5 496/8/5 500/8/5
f 505/1/5 503/1/5 502/1/5
f 506/1/5 505/1/5 504/1/5
f 507/1/5 503/1/5 505/1/5
f 507/1/5 505/1/5 506/1/5
f 510/1/5 509/1/5 508/1/5
f 511/1/5 509/1/5 510/1/5
f 516/1/5 513/1/5 512/1/5
f 517/1/5 513/1/5 516/1/5
f 518/1/5 515/1/5 514/1/5
f 519/1/5 515/1/5 518/1/5
f 522/1/5 521/1/5 520/1/5
f 523/1/5 521/1/5 522/1/5
f 524/1/5 521/1/5 523/1/5
f 529/9/5 526/9/5 525/9/5
f 530/9/5 526/9/5 529/9/5
f 531/9/5 528/9/5 527/9/5
f 532/9/5 528/9/5 531/9/5
f 537/1/5 534/1/5 533/1/5
f 538/1/5 534/1/5 537/1/5
f 539/1/5 536/1/5 535/1/5
f 540/1/5 536/1/5 539/1/5
f 541/1/6 542/1/6 545/1/6
f 545/1/6 542/1/6 546/1/6
f 543/1/6 544/1/6 547/1/6
f 547/1/6 544/1/6 548/1/6
f 549/1/6 550/1/6 551/1/6
f 551/1/6 550/1/6 552/1/6
f 551/1/6 552/1/6 553/1/6
f 553/1/6 552/1/6 554/1/6
f 555/1/6 556/1/6 557/1/6
f 557/1/6 556/1/6 558/1/6
f 559/1/6 560/1/6 561/1/6
f 561/1/6 560/1/6 562/1/6
f 562/1/6 560/1/6 563/1/6
f 563/1/6 560/1/6 564/1/6
f 562/1/6 563/1/6 565/1/6
f 565/1/6 563/1/6 566/1/6
f 567/1/6 568/1/6 569/1/6
f 569/1/6 568/1/6 570/1/6
f 570/1/6 568/1/6 571/1/6
f 571/1/6 568/1/6 572/1/6
f 573/9/6 574/9/6 579/9/6
f 579/9/6 574/9/6 580/9/6
f 575/9/6 576/9/6 581/9/6
f 581/9/6 576/9/6 582/9/6
f 577/2/6 578/2/6 585/2/6
f 585/2/6 578/2/6 586/2/6
f 583/2/6 584/2/6 587/2/6
f 587/2/6 584/2/6 588/2/6
f 589/2/6 590/2/6 592/2/6
f 592/2/6 590/2/6 593/2/6
f 593/2/6 590/2/6 594/2/6
f 594/2/6 590/2/6 595/2/6
f 591/5/6 592/5/6 597/5/6
f 597/5/6 592/5/6 598/5/6
f 595/5/6 596/5/6 599/5/6
f 599/5/6 596/5/6 600/5/6
f 597/6/6 598/6/6 601/6/6
f 601/6/6 598/6/6 602/6/6
f 599/6/6 600/6/6 603/6/6
f 603/6/6 600/6/6 604/6/6
f 601/5/6 602/5/6 605/5/6
f 605/5/6 602/5/6 606/5/6
f 603/5/6 604/5/6 607/5/6
f 607/5/6 604/5/6 608/5/6
f 609/9/6 610/9/6 613/9/6
f 613/9/6 610/9/6 614/9/6
f 614/9/6 610/9/6 615/9/6
f 611/9/6 612/9/6 616/9/6
f 616/9/6 612/9/6 617/9/6
f 617/9/6 612/9/6 618/9/6
f 614/2/6 615/2/6 619/2/6
f 616/2/6 617/2/6 619/2/6
f 615/2/6 616/2/6 619/2/6
f 619/2/6 617/2/6 620/2/6
f 620/2/6 617/2/6 621/2/6
f 621/2/6 617/2/6 622/2/6
f 622/2/6 617/2/6 623/2/6
f 623/2/6 617/2/6 624/2/6
f 619/2/6 620/2/6 625/2/6
f 625/2/6 620/2/6 626/2/6
f 623/2/6 624/2/6 627/2/6
f 627/2/6 624/2/6 628/2/6
f 621/2/6 622/2/6 629/2/6
f 629/2/6 622/2/6 630/2/6
f 631/5/6 632/5/6 635/5/6
f 632/4/6 633/4/6 636/4/6
f 635/5/6 632/5/6 636/5/6
f 633/5/6 634/5/6 637/5/6
f 636/4/6 633/4/6 637/4/6
f 637/5/6 634/5/6 638/5/6
f 635/6/6 636/6/6 639/6/6
f 636/6/6 637/6/6 639/6/6
f 637/6/6 638/6/6 639/6/6
f 639/6/6 638/6/6 640/6/6
f 640/6/6 638/6/6 641/6/6
f 641/6/6 638/6/6 642/6/6
f 639/5/6 640/5/6 643/5/6
f 640/4/6 641/4/6 644/4/6
f 643/5/6 640/5/6 644/5/6
f 641/5/6 642/5/6 645/5/6
f 644/4/6 641/4/6 645/4/6
f 645/5/6 642/5/6 646/5/6
f 647/1/6 648/1/6 651/1/6
f 651/1/6 648/1/6 652/1/6
f 649/1/6 650/1/6 653/1/6
f 653/1/6 650/1/6 654/1/6
f 655/1/6 656/1/6 659/1/6
f 659/1/6 656/1/6 660/1/6
f 657/1/6 658/1/6 661/1/6
f 661/1/6 658/1/6 662/1/6
